{
  "accessors": [
    {
      "bufferView": 2,
      "componentType": 5126,
      "count": 47,
      "max": [
        0.4169585108757019,
        0.2875663638114929,
        -5.0914305660398895e-08
      ],
      "min": [
        -0.36175328493118286,
        -0.477082222700119,
        -7.472219465398666e-08
      ],
      "type": "VEC3"
    },
    {
      "bufferView": 2,
      "byteOffset": 564,
      "componentType": 5126,
      "count": 47,
      "max": [
        1.0782314774360202e-07,
        8.355392822068097e-08,
        1.0
      ],
      "min": [
        0.0,
        -6.89627839278728e-08,
        1.0
      ],
      "type": "VEC3"
    },
    {
      "bufferView": 1,
      "componentType": 5126,
      "count": 47,
      "max": [
        1.0,
        1.0
      ],
      "min": [
        0.0,
        0.0
      ],
      "type": "VEC2"
    },
    {
      "bufferView": 0,
      "componentType": 5125,
      "count": 69,
      "type": "SCALAR"
    },
    {
      "bufferView": 2,
      "byteOffset": 1128,
      "componentType": 5126,
      "count": 15233,
      "max": [
        0.4520071744918823,
        0.326987087726593,
        0.023795025423169136
      ],
      "min": [
        -0.40068936347961426,
        -0.5088794231414795,
        -0.010683838278055191
      ],
      "type": "VEC3"
    },
    {
      "bufferView": 2,
      "byteOffset": 183924,
      "componentType": 5126,
      "count": 15233,
      "max": [
        1.0,
        1.0,
        0.9998394846916199
      ],
      "min": [
        -1.0,
        -1.0,
        -1.0
      ],
      "type": "VEC3"
    },
    {
      "bufferView": 1,
      "byteOffset": 376,
      "componentType": 5126,
      "count": 15233,
      "max": [
        0.8750001192092896,
        1.0013740062713623
      ],
      "min": [
        0.125,
        -0.0002744800003711134
      ],
      "type": "VEC2"
    },
    {
      "bufferView": 0,
      "byteOffset": 276,
      "componentType": 5125,
      "count": 51456,
      "type": "SCALAR"
    },
    {
      "bufferView": 2,
      "byteOffset": 366720,
      "componentType": 5126,
      "count": 4838,
      "max": [
        0.25042009353637695,
        0.13214325904846191,
        0.02338179387152195
      ],
      "min": [
        -0.19584767520427704,
        -0.12256744503974915,
        -0.015019644983112812
      ],
      "type": "VEC3"
    },
    {
      "bufferView": 2,
      "byteOffset": 424776,
      "componentType": 5126,
      "count": 4838,
      "max": [
        0.9999979138374329,
        0.9999984502792358,
        0.9998502135276794
      ],
      "min": [
        -0.999998152256012,
        -0.9999979138374329,
        -1.0
      ],
      "type": "VEC3"
    },
    {
      "bufferView": 1,
      "byteOffset": 122240,
      "componentType": 5126,
      "count": 4838,
      "max": [
        0.8750001788139343,
        1.000000238418579
      ],
      "min": [
        0.125,
        0.0
      ],
      "type": "VEC2"
    },
    {
      "bufferView": 0,
      "byteOffset": 206100,
      "componentType": 5125,
      "count": 18432,
      "type": "SCALAR"
    },
    {
      "bufferView": 2,
      "byteOffset": 482832,
      "componentType": 5126,
      "count": 2560,
      "max": [
        0.11088388413190842,
        -0.008285868912935257,
        0.0556318573653698
      ],
      "min": [
        -0.11088388413190842,
        -1.0045182704925537,
        -0.04635443910956383
      ],
      "type": "VEC3"
    },
    {
      "bufferView": 2,
      "byteOffset": 513552,
      "componentType": 5126,
      "count": 2560,
      "max": [
        1.0,
        0.9999908804893494,
        0.9992641806602478
      ],
      "min": [
        -1.0,
        -0.9984164834022522,
        -0.9999240040779114
      ],
      "type": "VEC3"
    },
    {
      "bufferView": 1,
      "byteOffset": 160944,
      "componentType": 5126,
      "count": 2560,
      "max": [
        0.8750001192092896,
        1.0000001192092896
      ],
      "min": [
        0.1250000149011612,
        0.0
      ],
      "type": "VEC2"
    },
    {
      "bufferView": 0,
      "byteOffset": 279828,
      "componentType": 5125,
      "count": 12480,
      "type": "SCALAR"
    },
    {
      "bufferView": 2,
      "byteOffset": 544272,
      "componentType": 5126,
      "count": 15311,
      "max": [
        0.2627062201499939,
        0.2861536145210266,
        0.08365460485219955
      ],
      "min": [
        -0.2627061903476715,
        -0.07957971096038818,
        -0.011094922199845314
      ],
      "type": "VEC3"
    },
    {
      "bufferView": 2,
      "byteOffset": 728004,
      "componentType": 5126,
      "count": 15311,
      "max": [
        1.0,
        0.9997867345809937,
        1.0
      ],
      "min": [
        -1.0,
        -0.9999877214431763,
        -0.9999911785125732
      ],
      "type": "VEC3"
    },
    {
      "bufferView": 1,
      "byteOffset": 181424,
      "componentType": 5126,
      "count": 15311,
      "max": [
        0.8750001192092896,
        1.0000001192092896
      ],
      "min": [
        0.0,
        0.0
      ],
      "type": "VEC2"
    },
    {
      "bufferView": 0,
      "byteOffset": 329748,
      "componentType": 5125,
      "count": 91200,
      "type": "SCALAR"
    },
    {
      "bufferView": 2,
      "byteOffset": 911736,
      "componentType": 5126,
      "count": 10880,
      "max": [
        0.07383663952350616,
        0.2329137623310089,
        0.06782922893762589
      ],
      "min": [
        -0.07383672893047333,
        0.03135265037417412,
        0.005266590975224972
      ],
      "type": "VEC3"
    },
    {
      "bufferView": 2,
      "byteOffset": 1042296,
      "componentType": 5126,
      "count": 10880,
      "max": [
        1.0,
        0.47570550441741943,
        0.9999955892562866
      ],
      "min": [
        -1.0,
        -0.4757060110569,
        -0.9999955296516418
      ],
      "type": "VEC3"
    },
    {
      "bufferView": 1,
      "byteOffset": 303912,
      "componentType": 5126,
      "count": 10880,
      "max": [
        0.0,
        0.0
      ],
      "min": [
        0.0,
        0.0
      ],
      "type": "VEC2"
    },
    {
      "bufferView": 0,
      "byteOffset": 694548,
      "componentType": 5125,
      "count": 64512,
      "type": "SCALAR"
    },
    {
      "bufferView": 2,
      "byteOffset": 1172856,
      "componentType": 5126,
      "count": 5558,
      "max": [
        0.7571423053741455,
        -0.01153752114623785,
        0.004201861098408699
      ],
      "min": [
        -0.7571423053741455,
        -1.0756847858428955,
        -0.015224005095660686
      ],
      "type": "VEC3"
    },
    {
      "bufferView": 2,
      "byteOffset": 1239552,
      "componentType": 5126,
      "count": 5558,
      "max": [
        1.0,
        0.9999724626541138,
        1.0
      ],
      "min": [
        -1.0,
        -0.9941025972366333,
        -1.0
      ],
      "type": "VEC3"
    },
    {
      "bufferView": 1,
      "byteOffset": 390952,
      "componentType": 5126,
      "count": 5558,
      "max": [
        1.0000001192092896,
        1.0000001192092896
      ],
      "min": [
        0.0,
        0.0
      ],
      "type": "VEC2"
    },
    {
      "bufferView": 0,
      "byteOffset": 952596,
      "componentType": 5125,
      "count": 16224,
      "type": "SCALAR"
    },
    {
      "bufferView": 2,
      "byteOffset": 1306248,
      "componentType": 5126,
      "count": 65532,
      "max": [
        0.7926613688468933,
        0.0889093428850174,
        -0.31923195719718933
      ],
      "min": [
        -0.7926613688468933,
        -1.1654866933822632,
        -0.37543508410453796
      ],
      "type": "VEC3"
    },
    {
      "bufferView": 2,
      "byteOffset": 2092632,
      "componentType": 5126,
      "count": 65532,
      "max": [
        1.0,
        1.0,
        1.0
      ],
      "min": [
        -1.0,
        -1.0,
        -1.0
      ],
      "type": "VEC3"
    },
    {
      "bufferView": 1,
      "byteOffset": 435416,
      "componentType": 5126,
      "count": 65532,
      "max": [
        0.43059271574020386,
        1.0000245571136475
      ],
      "min": [
        -9.902055564392498e-11,
        -7.407678914717053e-10
      ],
      "type": "VEC2"
    },
    {
      "bufferView": 0,
      "byteOffset": 1017492,
      "componentType": 5125,
      "count": 294411,
      "type": "SCALAR"
    },
    {
      "bufferView": 2,
      "byteOffset": 2879016,
      "componentType": 5126,
      "count": 17235,
      "max": [
        0.16080547869205475,
        0.0889093428850174,
        -0.3192320168018341
      ],
      "min": [
        -0.7926613688468933,
        -1.1605634689331055,
        -0.37543508410453796
      ],
      "type": "VEC3"
    },
    {
      "bufferView": 2,
      "byteOffset": 3085836,
      "componentType": 5126,
      "count": 17235,
      "max": [
        1.0,
        1.0,
        1.0
      ],
      "min": [
        -0.9999978542327881,
        -1.0,
        -1.0
      ],
      "type": "VEC3"
    },
    {
      "bufferView": 1,
      "byteOffset": 959672,
      "componentType": 5126,
      "count": 17235,
      "max": [
        0.43059271574020386,
        1.0000245571136475
      ],
      "min": [
        -9.902055564392498e-11,
        -7.407678914717053e-10
      ],
      "type": "VEC2"
    },
    {
      "bufferView": 0,
      "byteOffset": 2195136,
      "componentType": 5125,
      "count": 50037,
      "type": "SCALAR"
    },
    {
      "bufferView": 2,
      "byteOffset": 3292656,
      "componentType": 5126,
      "count": 349,
      "max": [
        1.612534761428833,
        -3.428023338317871,
        -0.29081130027770996
      ],
      "min": [
        -1.5867702960968018,
        -4.5689377784729,
        -0.3408968448638916
      ],
      "type": "VEC3"
    },
    {
      "bufferView": 2,
      "byteOffset": 3296844,
      "componentType": 5126,
      "count": 349,
      "max": [
        1.0,
        1.0,
        1.0
      ],
      "min": [
        -1.0,
        -1.0,
        -1.0
      ],
      "type": "VEC3"
    },
    {
      "bufferView": 1,
      "byteOffset": 1097552,
      "componentType": 5126,
      "count": 349,
      "max": [
        0.875,
        1.0
      ],
      "min": [
        0.125,
        0.0
      ],
      "type": "VEC2"
    },
    {
      "bufferView": 0,
      "byteOffset": 2395284,
      "componentType": 5125,
      "count": 528,
      "type": "SCALAR"
    },
    {
      "bufferView": 2,
      "byteOffset": 3301032,
      "componentType": 5126,
      "count": 4,
      "max": [
        1.0,
        0.0,
        1.0
      ],
      "min": [
        -1.0,
        0.0,
        -1.0
      ],
      "type": "VEC3"
    },
    {
      "bufferView": 2,
      "byteOffset": 3301080,
      "componentType": 5126,
      "count": 4,
      "max": [
        0.0,
        1.0,
        -0.0
      ],
      "min": [
        0.0,
        1.0,
        -0.0
      ],
      "type": "VEC3"
    },
    {
      "bufferView": 1,
      "byteOffset": 1100344,
      "componentType": 5126,
      "count": 4,
      "max": [
        1.0,
        1.0
      ],
      "min": [
        0.0,
        0.0
      ],
      "type": "VEC2"
    },
    {
      "bufferView": 0,
      "byteOffset": 2397396,
      "componentType": 5125,
      "count": 6,
      "type": "SCALAR"
    }
  ],
  "asset": {
    "extras": {
      "author": "SDC PERFORMANCE™️ (https://sketchfab.com/3Duae)",
      "license": "CC-BY-4.0 (http://creativecommons.org/licenses/by/4.0/)",
      "source": "https://sketchfab.com/3d-models/rev-official-asphalt-9-club-7c8eaf3c3a6a40a3a4efc3ae01ef3e20",
      "title": "ReV ( OFFICIAL ) Ω - Asphalt 9 club"
    },
    "generator": "Sketchfab-15.50.0",
    "version": "2.0"
  },
  "bufferViews": [
    {
      "buffer": 0,
      "byteLength": 2397420,
      "name": "floatBufferViews",
      "target": 34963
    },
    {
      "buffer": 0,
      "byteLength": 1100376,
      "byteOffset": 2397420,
      "byteStride": 8,
      "name": "floatBufferViews",
      "target": 34962
    },
    {
      "buffer": 0,
      "byteLength": 3301128,
      "byteOffset": 3497796,
      "byteStride": 12,
      "name": "floatBufferViews",
      "target": 34962
    }
  ],
  "buffers": [
    {
      "byteLength": 6798924,
      "uri": "scene.bin"
    }
  ],
  "extensionsUsed": [
    "KHR_materials_specular"
  ],
  "materials": [
    {
      "doubleSided": true,
      "emissiveFactor": [
        0.0,
        0.2618891781927143,
        1.0
      ],
      "name": "Material.005",
      "pbrMetallicRoughness": {
        "baseColorFactor": [
          0.07533539999999998,
          0.39075600000000027,
          0.4845650000000001,
          1.0
        ],
        "roughnessFactor": 0.6445733929855786
      }
    },
    {
      "doubleSided": true,
      "name": "Material.004",
      "pbrMetallicRoughness": {
        "baseColorFactor": [
          0.0432322,
          0.0432322,
          0.0356644,
          1.0
        ],
        "metallicFactor": 0.756477,
        "roughnessFactor": 0.24838170935378087
      }
    },
    {
      "doubleSided": true,
      "name": "Material.007",
      "pbrMetallicRoughness": {
        "baseColorFactor": [
          0.22653400390734113,
          0.22653400390734113,
          0.22653400390734113,
          1.0
        ],
        "metallicFactor": 0.797927,
        "roughnessFactor": 0.32152478940888196
      }
    },
    {
      "doubleSided": true,
      "name": "Material.003",
      "pbrMetallicRoughness": {
        "baseColorFactor": [
          0.01471022438120733,
          0.028337597350005517,
          0.08278013630699911,
          1.0
        ],
        "metallicFactor": 0.693335446355646,
        "roughnessFactor": 0.4556204361765674
      }
    },
    {
      "doubleSided": true,
      "name": "Material.001",
      "pbrMetallicRoughness": {
        "baseColorFactor": [
          0.522516,
          0.522516,
          0.522516,
          1.0
        ],
        "roughnessFactor": 0.37638209945020784
      }
    },
    {
      "doubleSided": true,
      "extensions": {
        "KHR_materials_specular": {
          "specularColorFactor": [
            1.0,
            1.0,
            1.0
          ],
          "specularFactor": 0.2971437627238483
        }
      },
      "name": "Material.002",
      "pbrMetallicRoughness": {
        "baseColorFactor": [
          0.006585530000000001,
          0.010599899999999987,
          0.021334000000000002,
          1.0
        ],
        "metallicFactor": 0.8396216064658483,
        "roughnessFactor": 0.3520010727651741
      }
    }
  ],
  "meshes": [
    {
      "name": "Object_0",
      "primitives": [
        {
          "attributes": {
            "NORMAL": 1,
            "POSITION": 0,
            "TEXCOORD_0": 2
          },
          "indices": 3,
          "material": 0,
          "mode": 4
        }
      ]
    },
    {
      "name": "Object_1",
      "primitives": [
        {
          "attributes": {
            "NORMAL": 5,
            "POSITION": 4,
            "TEXCOORD_0": 6
          },
          "indices": 7,
          "material": 1,
          "mode": 4
        }
      ]
    },
    {
      "name": "Object_2",
      "primitives": [
        {
          "attributes": {
            "NORMAL": 9,
            "POSITION": 8,
            "TEXCOORD_0": 10
          },
          "indices": 11,
          "material": 1,
          "mode": 4
        }
      ]
    },
    {
      "name": "Object_3",
      "primitives": [
        {
          "attributes": {
            "NORMAL": 13,
            "POSITION": 12,
            "TEXCOORD_0": 14
          },
          "indices": 15,
          "material": 2,
          "mode": 4
        }
      ]
    },
    {
      "name": "Object_4",
      "primitives": [
        {
          "attributes": {
            "NORMAL": 17,
            "POSITION": 16,
            "TEXCOORD_0": 18
          },
          "indices": 19,
          "material": 1,
          "mode": 4
        }
      ]
    },
    {
      "name": "Object_5",
      "primitives": [
        {
          "attributes": {
            "NORMAL": 21,
            "POSITION": 20,
            "TEXCOORD_0": 22
          },
          "indices": 23,
          "material": 3,
          "mode": 4
        }
      ]
    },
    {
      "name": "Object_6",
      "primitives": [
        {
          "attributes": {
            "NORMAL": 25,
            "POSITION": 24,
            "TEXCOORD_0": 26
          },
          "indices": 27,
          "material": 3,
          "mode": 4
        }
      ]
    },
    {
      "name": "Object_7",
      "primitives": [
        {
          "attributes": {
            "NORMAL": 29,
            "POSITION": 28,
            "TEXCOORD_0": 30
          },
          "indices": 31,
          "material": 4,
          "mode": 4
        }
      ]
    },
    {
      "name": "Object_8",
      "primitives": [
        {
          "attributes": {
            "NORMAL": 33,
            "POSITION": 32,
            "TEXCOORD_0": 34
          },
          "indices": 35,
          "material": 4,
          "mode": 4
        }
      ]
    },
    {
      "name": "Object_9",
      "primitives": [
        {
          "attributes": {
            "NORMAL": 37,
            "POSITION": 36,
            "TEXCOORD_0": 38
          },
          "indices": 39,
          "material": 0,
          "mode": 4
        }
      ]
    },
    {
      "name": "Object_10",
      "primitives": [
        {
          "attributes": {
            "NORMAL": 41,
            "POSITION": 40,
            "TEXCOORD_0": 42
          },
          "indices": 43,
          "material": 5,
          "mode": 4
        }
      ]
    }
  ],
  "nodes": [
    {
      "children": [
        1
      ],
      "matrix": [
        1.0,
        0.0,
        0.0,
        0.0,
        0.0,
        2.220446049250313e-16,
        -1.0,
        0.0,
        0.0,
        1.0,
        2.220446049250313e-16,
        0.0,
        0.0,
        0.0,
        0.0,
        1.0
      ],
      "name": "Sketchfab_model"
    },
    {
      "children": [
        2
      ],
      "name": "root"
    },
    {
      "children": [
        3,
        5,
        7,
        9,
        13,
        15,
        18,
        20
      ],
      "matrix": [
        1.0,
        0.0,
        0.0,
        0.0,
        0.0,
        2.220446049250313e-16,
        1.0,
        0.0,
        0.0,
        -1.0,
        2.220446049250313e-16,
        0.0,
        0.0,
        0.0,
        0.0,
        1.0
      ],
      "name": "GLTF_SceneRootNode"
    },
    {
      "children": [
        4
      ],
      "matrix": [
        1.0,
        0.0,
        0.0,
        0.0,
        -0.0,
        0.9782758858732408,
        -0.20730723846244722,
        0.0,
        0.0,
        0.20730723846244722,
        0.9782758858732408,
        0.0,
        0.0,
        0.007389366626739502,
        0.06746423989534378,
        1.0
      ],
      "name": "Plane_0"
    },
    {
      "mesh": 0,
      "name": "Object_4"
    },
    {
      "children": [
        6
      ],
      "matrix": [
        1.0,
        0.0,
        0.0,
        0.0,
        -0.0,
        0.9782758858732408,
        -0.20730723846244722,
        0.0,
        0.0,
        0.20730723846244722,
        0.9782758858732408,
        0.0,
        0.0,
        0.007389366626739502,
        0.06746423989534378,
        1.0
      ],
      "name": "Cube_1"
    },
    {
      "mesh": 1,
      "name": "Object_6"
    },
    {
      "children": [
        8
      ],
      "matrix": [
        1.0,
        0.0,
        0.0,
        0.0,
        -0.0,
        0.9782758858732408,
        -0.20730723846244722,
        0.0,
        0.0,
        0.20730723846244722,
        0.9782758858732408,
        0.0,
        0.0,
        0.007389366626739502,
        0.06746423989534378,
        1.0
      ],
      "name": "Cube.001_2"
    },
    {
      "mesh": 2,
      "name": "Object_8"
    },
    {
      "children": [
        10,
        11,
        12
      ],
      "matrix": [
        1.0,
        0.0,
        -0.0,
        0.0,
        0.0,
        0.8447271969065251,
        -0.5351971251851461,
        0.0,
        0.0,
        0.5351971251851461,
        0.8447271969065251,
        0.0,
        0.024231981486082077,
        0.3518792688846588,
        -0.14814446866512299,
        1.0
      ],
      "name": "Circle_3"
    },
    {
      "mesh": 3,
      "name": "Object_10"
    },
    {
      "mesh": 4,
      "name": "Object_11"
    },
    {
      "mesh": 5,
      "name": "Object_12"
    },
    {
      "children": [
        14
      ],
      "matrix": [
        1.0,
        0.0,
        -0.0,
        0.0,
        0.0,
        0.9782758858732408,
        -0.20730723846244722,
        0.0,
        0.0,
        0.20730723846244722,
        0.9782758858732408,
        0.0,
        0.024231944233179092,
        0.6234902143478394,
        -0.0760975033044815,
        1.0
      ],
      "name": "Plane.001_4"
    },
    {
      "mesh": 6,
      "name": "Object_14"
    },
    {
      "children": [
        16,
        17
      ],
      "matrix": [
        1.0,
        0.0,
        -0.0,
        0.0,
        0.0,
        0.9239421636622197,
        -0.38253219238016556,
        0.0,
        0.0,
        0.38253219238016556,
        0.9239421636622197,
        0.0,
        0.024231944233179092,
        0.6475648283958435,
        -0.001179000362753868,
        1.0
      ],
      "name": "Plane.002_5"
    },
    {
      "mesh": 7,
      "name": "Object_16"
    },
    {
      "mesh": 8,
      "name": "Object_17"
    },
    {
      "children": [
        19
      ],
      "matrix": [
        0.23721943795681,
        0.0,
        0.0,
        0.0,
        0.0,
        0.23206605581355058,
        -0.049177306592440115,
        0.0,
        0.0,
        0.049177306592440115,
        0.23206605581355058,
        0.0,
        0.024231944233179092,
        0.640799880027771,
        0.005585953593254089,
        1.0
      ],
      "name": "Cube.002_7"
    },
    {
      "mesh": 9,
      "name": "Object_19"
    },
    {
      "children": [
        21
      ],
      "matrix": [
        2.906297206878662,
        0.0,
        0.0,
        0.0,
        0.0,
        0.6310808782270324,
        1.581807917149058,
        0.0,
        0.0,
        -1.581807917149058,
        0.6310808782270324,
        0.0,
        0.024231944233179092,
        0.030396997928619385,
        -0.24041146039962769,
        1.0
      ],
      "name": "Plane.003_8"
    },
    {
      "mesh": 10,
      "name": "Object_21"
    }
  ],
  "scene": 0,
  "scenes": [
    {
      "name": "Sketchfab_Scene",
      "nodes": [
        0
      ]
    }
  ]
}
